<?xml version="1.0" encoding="UTF-8" standalone="no"?>
<svg
   viewBox="0 0 16 16"
   version="1.1"
   id="svg1"
   sodipodi:docname="computer.svg"
   inkscape:version="1.3.2 (091e20ef0f, 2023-11-25)"
   xmlns:inkscape="http://www.inkscape.org/namespaces/inkscape"
   xmlns:sodipodi="http://sodipodi.sourceforge.net/DTD/sodipodi-0.dtd"
   xmlns="http://www.w3.org/2000/svg"
   xmlns:svg="http://www.w3.org/2000/svg">
  <sodipodi:namedview
     id="namedview1"
     pagecolor="#ffffff"
     bordercolor="#999999"
     borderopacity="1"
     inkscape:showpageshadow="2"
     inkscape:pageopacity="0"
     inkscape:pagecheckerboard="0"
     inkscape:deskcolor="#d1d1d1"
     inkscape:zoom="47.75"
     inkscape:cx="8"
     inkscape:cy="8"
     inkscape:window-width="1920"
     inkscape:window-height="996"
     inkscape:window-x="0"
     inkscape:window-y="0"
     inkscape:window-maximized="1"
     inkscape:current-layer="svg1" />
  <defs
     id="defs3051">
    <style
       type="text/css"
       id="current-color-scheme">.ColorScheme-Text {color:#eff0f1;}</style>
  </defs>
  <path
     style="fill:#000000;fill-opacity:1;stroke:none"
     d="m 2,5 c 0,2 0,2 0,4 0,2 2,2 2,2 h 3 v 1 H 5 v 1 h 6 V 12 H 9 v -1 h 3 c 0,0 2,0 2,-2 C 14,7 14,7 14,5 14,3 12,3 12,3 H 4 C 4,3 2,3 2,5 Z M 3,5 C 3,4 4,4 4,4 h 8 c 0,0 1,0 1,1 0,1 0,3 0,4 0,1 -1,1 -1,1 H 4 C 4,10 3,10 3,9 3,8 3,6 3,5 Z"
     class="ColorScheme-Text"
     id="path1" />
</svg>
