<?xml version="1.0" encoding="UTF-8" standalone="no"?>
<svg
   id="svg"
   version="1.1"
   viewBox="0 0 32 32"
   sodipodi:docname="device-notifier-symbolic.svg"
   inkscape:version="1.3.2 (091e20ef0f, 2023-11-25)"
   width="32"
   height="32"
   xmlns:inkscape="http://www.inkscape.org/namespaces/inkscape"
   xmlns:sodipodi="http://sodipodi.sourceforge.net/DTD/sodipodi-0.dtd"
   xmlns="http://www.w3.org/2000/svg"
   xmlns:svg="http://www.w3.org/2000/svg"
   xmlns:rdf="http://www.w3.org/1999/02/22-rdf-syntax-ns#"
   xmlns:cc="http://creativecommons.org/ns#"
   xmlns:dc="http://purl.org/dc/elements/1.1/">
  <sodipodi:namedview
     id="namedview27"
     pagecolor="#201933"
     bordercolor="#000000"
     borderopacity="1"
     inkscape:pageshadow="2"
     inkscape:pageopacity="0.0"
     inkscape:pagecheckerboard="true"
     showgrid="true"
     inkscape:zoom="9.208459"
     inkscape:cx="16.397966"
     inkscape:cy="15.963583"
     inkscape:window-width="1920"
     inkscape:window-height="994"
     inkscape:window-x="0"
     inkscape:window-y="0"
     inkscape:window-maximized="1"
     inkscape:current-layer="svg"
     inkscape:showpageshadow="2"
     inkscape:deskcolor="#201933">
    <inkscape:grid
       type="xygrid"
       id="grid951"
       originx="-6.0000114"
       originy="-60.000011"
       spacingy="1"
       spacingx="1"
       units="px"
       visible="true" />
  </sodipodi:namedview>
  <metadata
     id="metadata47">
    <rdf:RDF>
      <cc:Work
         rdf:about="">
        <dc:format>image/svg+xml</dc:format>
        <dc:type
           rdf:resource="http://purl.org/dc/dcmitype/StillImage" />
      </cc:Work>
    </rdf:RDF>
  </metadata>
  <defs
     id="defs3">
    <style
       id="current-color-scheme"
       type="text/css">.ColorScheme-Text { color:#333333; } .ColorScheme-Highlight { color:#5294e2; } .ColorScheme-ButtonBackground { color:#dedede; }</style>
  </defs>
  <g
     id="g1"
     style="fill:#1e2431;fill-opacity:1"
     transform="translate(0,-43)">
    <g
       id="device-notifier"
       style="fill:#1e2431;fill-opacity:1">
      <rect
         style="opacity:0.00100002;fill:#1e2431;fill-opacity:1"
         width="32"
         height="32"
         x="0"
         y="-4.6325681e-08"
         id="rect7" />
      <path
         d="m 19,4 h -6 c 0,0 -1,0 -1,1 l -2e-6,4.9999993 -1.566909,-0.010842 c -0.232129,-0.00257 -0.425184,0.1530467 -0.425262,0.3427867 l -0.0078,16.220339 c -3.863e-4,0.797702 0.801072,1.444732 1.789972,1.445072 l 8.416753,0.0026 c 0.982683,3.08e-4 1.784913,-0.646336 1.78544,-1.443927 L 22,10.335739 c 9.7e-5,-0.189752 -0.189715,-0.3429903 -0.424929,-0.3430519 L 20,10 V 5 C 20,4 19,4 19,4 Z m -6,18 v 0 0 0 0 0 c 0,1 0,0 0,0 z m 0,3 h -1 v -3 h 2 v 0 3 0 z m 4,0 v 0 h -2 v -7 h 1 0.971926 z m 3,-10 v 10 0 H 18 V 15 Z M 19,9.9999998 13.000001,10 13,4.9999997 18.999999,5 Z"
         id="path3559"
         style="fill:#1e2431;fill-opacity:1;stroke-width:0.0478637"
         sodipodi:nodetypes="ccccccccsccccccccccccccsccccccsscccccsccccccccccc" />
      <path
         d="m 18,6.5 0.03633,2 v 0 H 14 v -2 z"
         id="path3565"
         style="fill:#1e2431;fill-opacity:1;stroke-width:0.0478637"
         sodipodi:nodetypes="cccccc" />
      <path
         d="m 13.997643,20.000398 c -0.0016,0.890099 -1.077928,1.3342 -1.706378,0.70402 C 11.662825,20.074236 12.109903,18.998765 13,19 c 0.551579,9.75e-4 0.998019,0.448815 0.997643,1.000398 z"
         id="path1086-6-3"
         style="color:#e5e9ef;fill:#1e2431;fill-opacity:1;stroke-width:0.690903"
         sodipodi:nodetypes="csccccc"
         class="ColorScheme-Text " />
    </g>
  </g>
  <g
     id="device-notifier-6"
     transform="translate(32,10.000001)">
    <rect
       style="opacity:0.00100002"
       width="32"
       height="32"
       x="-32"
       y="-10.000001"
       id="rect7-7" />
    <path
       d="m -12,-2.000001 v -4 h -7 v 4 c -1.844769,0.07571 -3,0.7192426 -3,1.82965305 V 15.905362 c 0,1.160883 1.587341,2.094502 3.560809,2.094536 l 5.877459,1.01e-4 c 1.973466,3.4e-5 3.5608091,-0.933754 3.5608091,-2.094637 V -0.17034795 C -8.958015,-1.2807584 -10.155235,-1.9242909 -12,-2.000001 Z m -3.436114,-3 H -13 v 3 h -2.436114 v -1.905363 h 0.257413 v -0.479495 h -0.257413 z m -2.563886,0 h 2.478083 v 0.6656154 h 0.257416 v 0.353312 h -0.257416 L -15.522,-2.000001 H -18 Z m 8,20.307 c 0.1884994,1.555726 -1.78922,1.693 -2.475643,1.693 H -18.58278 C -19.129761,17.006799 -21,16.796581 -21,15.483999 v -15.277 c 0,-1.10963529 1.630198,-1.207 2.31662,-1.207 h 6.591 c 0.643526,0 2.09238,0.0947864 2.09238,1.283 z"
       id="path4-3-3"
       style="fill:#232627;fill-opacity:1;stroke-width:0.329046"
       sodipodi:nodetypes="ccccssssscccccccccccccccccccccscsssssc" />
    <path
       d="m -13.577778,0.999999 h -3.866668 C -17.755557,0.999999 -18,1.177073 -18,1.483999 v 11.985 c 0,0.306927 0.244443,0.531 0.555554,0.531 H -13.511 c 0.311115,0 0.511,-0.224073 0.511,-0.531 v -11.985 c 0,-0.306926 -0.266666,-0.484 -0.577778,-0.484 z m -0.422222,12 v 0 h -3 v 0 -11 0 h 2.988334 0.01167 z"
       id="path6-6"
       style="fill:#232627;fill-opacity:1;stroke-width:0.220722"
       sodipodi:nodetypes="sssssssssccccccccc" />
    <path
       d="m -14.556291,2.999999 h -1.887417 C -16.741722,2.999999 -17,3.26308 -17,3.613853 v 4.779285 c 0,0.32885 0.238409,0.613853 0.556292,0.613853 h 1.887417 C -14.258279,9.006991 -14,8.74391 -14,8.393138 V 3.613853 c 0,-0.350773 -0.238409,-0.613854 -0.556291,-0.613854 z m 0.298012,1.161937 c 0,0.175387 -0.139072,0.328849 -0.298012,0.328849 h -1.807946 c -0.158945,0 -0.298013,-0.153462 -0.298013,-0.328849 V 4.05232 c 0,-0.175388 0.139068,-0.32885 0.298013,-0.32885 h 1.807946 c 0.15894,0 0.298012,0.153462 0.298012,0.32885 z"
       id="path8-7"
       style="fill:#489ab1;fill-opacity:1;stroke-width:0.208701" />
    <rect
       x="-18"
       y="-4.000001"
       width="2"
       height="1"
       id="rect10"
       style="fill:#232627;fill-opacity:1;stroke-width:0.533004" />
    <rect
       x="-15"
       y="-4.000001"
       width="1.9"
       height="1"
       id="rect12"
       style="fill:#232627;fill-opacity:1;stroke-width:0.519508" />
  </g>
</svg>
