<?xml version="1.0" encoding="UTF-8" standalone="no"?>
<svg
   width="32.000015"
   height="31.999973"
   version="1.1"
   id="svg6"
   sodipodi:docname="kdeconnect-symbolic.svg"
   inkscape:version="1.3.2 (091e20ef0f, 2023-11-25)"
   xmlns:inkscape="http://www.inkscape.org/namespaces/inkscape"
   xmlns:sodipodi="http://sodipodi.sourceforge.net/DTD/sodipodi-0.dtd"
   xmlns="http://www.w3.org/2000/svg"
   xmlns:svg="http://www.w3.org/2000/svg">
  <sodipodi:namedview
     id="namedview1"
     pagecolor="#ffffff"
     bordercolor="#999999"
     borderopacity="1"
     inkscape:showpageshadow="2"
     inkscape:pageopacity="0"
     inkscape:pagecheckerboard="0"
     inkscape:deskcolor="#d1d1d1"
     inkscape:zoom="16.83798"
     inkscape:cx="16.391515"
     inkscape:cy="15.500672"
     inkscape:window-width="1920"
     inkscape:window-height="994"
     inkscape:window-x="0"
     inkscape:window-y="0"
     inkscape:window-maximized="1"
     inkscape:current-layer="svg6"
     showgrid="true">
    <inkscape:grid
       id="grid2"
       units="px"
       originx="0"
       originy="0"
       spacingx="1"
       spacingy="1"
       empcolor="#0099e5"
       empopacity="0.30196078"
       color="#0099e5"
       opacity="0.14901961"
       empspacing="5"
       dotted="false"
       gridanglex="30"
       gridanglez="30"
       visible="true" />
  </sodipodi:namedview>
  <defs
     id="defs10" />
  <namedview
     id="namedview8"
     pagecolor="#ffffff"
     bordercolor="#000000"
     borderopacity="0.25"
     inkscape:showpageshadow="2"
     inkscape:pageopacity="0.0"
     inkscape:pagecheckerboard="0"
     inkscape:deskcolor="#d1d1d1"
     showgrid="false"
     inkscape:zoom="48.3125"
     inkscape:cx="6.8926261"
     inkscape:cy="7.9896507"
     inkscape:window-width="1920"
     inkscape:window-height="1011"
     inkscape:window-x="0"
     inkscape:window-y="0"
     inkscape:window-maximized="1"
     inkscape:current-layer="svg6" />
  <style
     type="text/css"
     id="current-color-scheme">.ColorScheme-Text{color:#31363b;}.ColorScheme-Background{color:#eff0f1;}.ColorScheme-Highlight{color:#3daee9;}.ColorScheme-ViewText{color:#31363b;}.ColorScheme-ViewBackground{color:#fcfcfc;}.ColorScheme-ViewHover{color:#93cee9;}.ColorScheme-ViewFocus{color:#3daee9;}.ColorScheme-ButtonText{color:#31363b;}.ColorScheme-ButtonBackground{color:#eff0f1;}.ColorScheme-ButtonHover{color:#93cee9;}.ColorScheme-ButtonFocus { color: #3daee9; } </style>
  <g
     id="kdeconnect-6">
    <rect
       width="32.000015"
       height="31.999973"
       rx="0"
       ry="0"
       x="-4.4677737e-09"
       y="9.5214844e-08"
       id="rect3860-7"
       style="opacity:0.01;fill:#a8aeca;fill-opacity:1;stroke:none" />
    <path
       d="m 9,6.9663675 c -0.1890129,0 -0.3,0.121887 -0.3,0.272181 v 0.534415 C 8.7,7.9255155 8.8124047,8 9,8 v 0.8539895 c -0.1890129,0 -0.3,0.119634 -0.3,0.267294 v 1.0836595 c 0,0.145403 0.1124047,0.267107 0.3,0.267107 v 0.539277 c -0.1890129,0 -0.3,0.119634 -0.3,0.267294 v 1.083469 c 0,0.145589 0.1124047,0.267294 0.3,0.267294 v 14.022479 c 0,0.743741 0.8018808,1.348123 1.741487,1.348123 H 22.29837 C 23.237564,27.999986 24,27.396374 24,26.651863 V 5.218 C 24,4.4744525 23.49963,4 22.798,4 h -0.838071 c 0,-0.149918 -0.151526,-0.5 -0.338432,-0.5 h -2.723132 c -0.18356,0 -0.33843,0.351021 -0.33843,0.5 H 10.342 C 9.4028284,4 9,4.4734895 9,5.218 Z M 15.329813,26.51694 c 0,-0.52122 0.534102,-0.943724 1.190131,-0.943724 0.65716,0 1.189868,0.423607 1.189868,0.943724 0,0.52122 -0.534103,0.943917 -1.189868,0.943917 -0.657424,0 -1.190131,-0.423607 -1.190131,-0.943917 z M 10,6 H 23 V 25 H 10 Z m 4.989774,-0.7863461 c 0,-0.07449 0.07552,-0.1348695 0.17336,-0.1348695 h 2.713356 c 0.09594,0 0.17336,0.06264 0.17336,0.1348695 0,0.07449 -0.07552,0.1348702 -0.17336,0.1348702 h -2.713356 c -0.09554,0 -0.17336,-0.06264 -0.17336,-0.1348702 z"
       fill-rule="evenodd"
       id="path76"
       style="color:#d6dbf1;fill:#232627;fill-opacity:1;stroke-width:0.0540706"
       sodipodi:nodetypes="cssccssccsscsssssscsscsccssssscccccsssssss"
       class="ColorScheme-Text" />
    <path
       style="color:#d6dbf1;fill:#232627;fill-opacity:1;stroke-width:0.530408"
       d="m 16.78191,11.4 -1.599518,0.278674 v 5.509201 l 1.591231,-0.205119 -0.0083,-2.483183 1.877148,2.748384 1.843997,-0.265201 -2.12163,-2.844731 2.128881,-2.386833 -1.866786,-0.343945 -1.86161,2.386842 z m -3.363739,1.406821 c -0.01539,9.97e-4 -0.02984,0.008 -0.04146,0.01965 l -0.549054,0.555274 c -0.02387,0.024 -0.02784,0.06145 -0.0092,0.09014 l 0.663011,1.018342 c -0.125077,0.221964 -0.219576,0.465339 -0.280748,0.719988 L 12.056,15.49096 C 12.02428,15.49876 12,15.52746 12,15.5604 v 0.361548 0.361548 c 0,0.03292 0.02421,0.06163 0.056,0.06945 l 1.144719,0.280739 c 0.06115,0.254652 0.155669,0.498029 0.280748,0.719991 l -0.66301,1.018337 c -0.01853,0.02868 -0.01453,0.06613 0.0092,0.09013 l 0.549058,0.555273 c 0.02311,0.02341 0.0591,0.02528 0.08697,0.0083 l 1.03906,-0.637107 c 0.203848,0.118758 0.522723,0.214305 0.755211,0.277635 l 0.243454,1.175798 c 0.0072,0.03393 0.03376,0.058 0.0673,0.058 h 0.409199 0.409203 c 0.03366,0 0.06055,-0.02402 0.06731,-0.058 l 0.243452,-1.175798 c 0.23249,-0.06335 0.55136,-0.158884 0.755212,-0.27764 l 1.039064,0.63711 c 0.02797,0.01695 0.06383,0.01509 0.08696,-0.0083 l 0.549063,-0.555274 c 0.02387,-0.02401 0.02785,-0.06145 0.0093,-0.09013 l -0.552163,-0.848441 -0.06838,0.01011 -0.38745,-0.567705 c -0.395715,0.829537 -1.232584,1.358173 -2.151672,1.35917 -1.318213,0 -2.386837,-1.06862 -2.386837,-2.386833 9.62e-4,-0.906007 0.514418,-1.733472 1.326017,-2.136139 v -0.521038 c -0.151291,0.05041 -0.299948,0.107355 -0.414378,0.174045 l -1.039002,-0.637076 c -0.01401,-0.0085 -0.03017,-0.01267 -0.04562,-0.0113 z"
       class="ColorScheme-Text "
       id="path10" />
  </g>
</svg>
