<?xml version="1.0" encoding="UTF-8" standalone="no"?>
<svg
   viewBox="0 0 22 22"
   version="1.1"
   id="svg1"
   sodipodi:docname="system-reboot.svg"
   width="22"
   height="22"
   inkscape:version="1.3.2 (091e20ef0f, 2023-11-25)"
   xmlns:inkscape="http://www.inkscape.org/namespaces/inkscape"
   xmlns:sodipodi="http://sodipodi.sourceforge.net/DTD/sodipodi-0.dtd"
   xmlns="http://www.w3.org/2000/svg"
   xmlns:svg="http://www.w3.org/2000/svg">
  <sodipodi:namedview
     id="namedview1"
     pagecolor="#bebebe"
     bordercolor="#999999"
     borderopacity="1"
     inkscape:showpageshadow="2"
     inkscape:pageopacity="0"
     inkscape:pagecheckerboard="0"
     inkscape:deskcolor="#d1d1d1"
     inkscape:zoom="12.245804"
     inkscape:cx="11.432487"
     inkscape:cy="28.581219"
     inkscape:window-width="1920"
     inkscape:window-height="994"
     inkscape:window-x="0"
     inkscape:window-y="0"
     inkscape:window-maximized="1"
     inkscape:current-layer="svg1"
     showgrid="false">
    <inkscape:grid
       id="grid1"
       units="px"
       originx="3"
       originy="-50.007004"
       spacingx="1"
       spacingy="1"
       empcolor="#0099e5"
       empopacity="0.30196078"
       color="#0099e5"
       opacity="0.14902"
       empspacing="5"
       dotted="false"
       gridanglex="30"
       gridanglez="30"
       visible="false" />
  </sodipodi:namedview>
  <defs
     id="defs3051">
    <style
       type="text/css"
       id="current-color-scheme">
.ColorScheme-Text { 
    color:#ffffff;
}
</style>
  </defs>
  <g
     id="g1">
    <path
       style="fill:none"
       d="M 0,0 V 22 H 22 V 0 Z"
       id="path49" />
    <path
       d="m 13.063206,9.5862754 c 0.375377,0.5464126 0.518215,1.2194446 0.396717,1.8707976 -0.121507,0.651481 -0.497392,1.228107 -1.044664,1.603069 -0.547355,0.374716 -1.22156,0.517302 -1.874249,0.395982 C 9.8885526,13.334857 9.3108821,12.959641 8.935295,12.41334 8.5599243,11.866931 8.4170945,11.193903 8.5386214,10.542369 8.6600975,9.8910744 9.0359752,9.3144024 9.5832344,8.9394704 10.130611,8.5647524 10.80482,8.4221784 11.457318,8.5434554 c 0.652639,0.121299 1.230263,0.496509 1.605888,1.04282 z"
       id="path1348-7-6"
       style="fill:#222638;fill-opacity:1;stroke-width:0.0440122"
       class="ColorScheme-Text " />
    <path
       style="stop-color:#31363b;stroke-opacity:1;stroke-dasharray:none;stroke-miterlimit:4;stroke-linecap:round;stroke-width:1.34507;stroke:#222638;fill-opacity:1;fill:none"
       sodipodi:type="arc"
       sodipodi:cx="-12.872336"
       sodipodi:cy="-8.7201757"
       sodipodi:rx="9.3818483"
       sodipodi:ry="9.4061403"
       sodipodi:start="3.6958974"
       sodipodi:end="0.1032134"
       sodipodi:open="true"
       sodipodi:arc-type="arc"
       transform="matrix(-0.98316218,-0.18273514,0.18335661,-0.98304647,0,0)"
       d="m -20.849409,-13.671119 a 9.3818483,9.4061403 0 0 1 11.0061788,-3.951439 9.3818483,9.4061403 0 0 1 6.3028141,9.8714992"
       id="path7-1-2"
       class="ColorScheme-Text " />
    <path
       style="stop-color:#31363b;stroke-opacity:1;stroke-dasharray:none;stroke-miterlimit:4;stroke-linecap:round;stroke-width:1.34507;stroke:#222638;fill-opacity:1;fill:none"
       sodipodi:type="arc"
       sodipodi:cx="-12.788433"
       sodipodi:cy="-8.8894873"
       sodipodi:rx="9.3818426"
       sodipodi:ry="9.4061584"
       sodipodi:start="0.65888677"
       sodipodi:end="3.1546437"
       sodipodi:open="true"
       sodipodi:arc-type="arc"
       d="m -5.3704514,-3.1306888 a 9.3818426,9.4061584 0 0 1 -10.5110256,3.12147407 9.3818426,9.4061584 0 0 1 -6.288,-9.00302927"
       id="path7-2-9"
       class="ColorScheme-Text "
       transform="matrix(-0.98316218,-0.18273514,0.18335661,-0.98304647,0,0)" />
  </g>
</svg>
