<?xml version="1.0" encoding="UTF-8" standalone="no"?>
<svg
   id="svg"
   version="1.1"
   viewBox="0 0 22 22"
   sodipodi:docname="device-notifier-symbolic.svg"
   inkscape:version="1.3.2 (091e20ef0f, 2023-11-25)"
   width="22"
   height="22"
   xmlns:inkscape="http://www.inkscape.org/namespaces/inkscape"
   xmlns:sodipodi="http://sodipodi.sourceforge.net/DTD/sodipodi-0.dtd"
   xmlns="http://www.w3.org/2000/svg"
   xmlns:svg="http://www.w3.org/2000/svg"
   xmlns:rdf="http://www.w3.org/1999/02/22-rdf-syntax-ns#"
   xmlns:cc="http://creativecommons.org/ns#"
   xmlns:dc="http://purl.org/dc/elements/1.1/">
  <sodipodi:namedview
     id="namedview27"
     pagecolor="#201933"
     bordercolor="#000000"
     borderopacity="1"
     inkscape:pageshadow="2"
     inkscape:pageopacity="0.0"
     inkscape:pagecheckerboard="true"
     showgrid="true"
     inkscape:zoom="9.208459"
     inkscape:cx="11.402559"
     inkscape:cy="11.076772"
     inkscape:window-width="1920"
     inkscape:window-height="994"
     inkscape:window-x="0"
     inkscape:window-y="0"
     inkscape:window-maximized="1"
     inkscape:current-layer="svg"
     inkscape:showpageshadow="2"
     inkscape:deskcolor="#201933">
    <inkscape:grid
       type="xygrid"
       id="grid951"
       originx="-11.000011"
       originy="21.997501"
       spacingy="1"
       spacingx="1"
       units="px"
       visible="true" />
  </sodipodi:namedview>
  <metadata
     id="metadata47">
    <rdf:RDF>
      <cc:Work
         rdf:about="">
        <dc:format>image/svg+xml</dc:format>
        <dc:type
           rdf:resource="http://purl.org/dc/dcmitype/StillImage" />
      </cc:Work>
    </rdf:RDF>
  </metadata>
  <defs
     id="defs3">
    <style
       id="current-color-scheme"
       type="text/css">.ColorScheme-Text { color:#333333; } .ColorScheme-Highlight { color:#5294e2; } .ColorScheme-ButtonBackground { color:#dedede; }</style>
  </defs>
  <g
     id="22-22-device-notifier-3"
     transform="translate(-32,-10.000001)">
    <rect
       style="opacity:0.00100002"
       width="22"
       height="22"
       x="32"
       y="10.000001"
       id="rect2" />
    <path
       d="m 46,16.000001 v -3 h -5 v 3 c -1.277129,0.05047 -2,0.845727 -2,1.586 v 9.818 c 0,0.773922 0.856465,1.596 2.121465,1.596 h 4.412623 c 1.366226,0 2.465139,-0.822078 2.465139,-1.596 v -9.818 C 48.028937,16.845728 47.277125,16.050474 46,16.000001 Z M 43.544161,13.666668 H 45 v 2.333333 h -1.455839 v -1.603575 h 0.178208 v -0.319664 h -0.178208 z m -1.544161,0 h 1.48476 v 0.443743 h 0.17821 v 0.235541 h -0.17821 l -5.7e-5,1.654049 H 42 Z m 5,13.238333 c 0.130496,1.03715 -0.931104,1.095 -1.406313,1.095 H 41.166 C 40.787327,28.004501 40,27.780055 40,26.905001 v -8.915 c 0,-0.739757 0.820879,-0.99 1.296087,-0.99 H 45.6 c 0.445512,0 1.4,0.196856 1.4,0.989 z"
       id="path4-3-3-36"
       style="fill:#232627;fill-opacity:1;stroke-width:0.223541"
       sodipodi:nodetypes="ccccssssscccccccccccccccccccccscsssssc" />
    <path
       d="m 44.653332,18 h -2.32 C 42.146666,18 42,18.108968 42,18.297845 v 7.375393 C 42,25.862115 42.146666,26 42.333332,26 h 2.360067 C 44.880068,26 45,25.862115 45,25.673238 V 18.297845 C 45,18.108968 44.839999,18 44.653332,18 Z M 44,25 v 0 h -1 v 0 -6 0 h 1 v 0 z"
       id="path6-6-7"
       style="fill:#232627;fill-opacity:1;stroke-width:0.134119"
       sodipodi:nodetypes="sssssssssccccccccc" />
    <rect
       x="42"
       y="14.000001"
       width="1"
       height="1"
       id="rect10-3"
       style="fill:#232627;fill-opacity:1;stroke-width:0.37689" />
    <rect
       x="44"
       y="14.000001"
       width="1"
       height="1"
       id="rect12-56"
       style="fill:#232627;fill-opacity:1;stroke-width:0.37689" />
  </g>
</svg>
