<?xml version="1.0" encoding="UTF-8" standalone="no"?>
<svg
   viewBox="0 0 22 22"
   version="1.1"
   id="svg1"
   sodipodi:docname="edit-copy.svg"
   inkscape:version="1.3.2 (091e20ef0f, 2023-11-25)"
   xmlns:inkscape="http://www.inkscape.org/namespaces/inkscape"
   xmlns:sodipodi="http://sodipodi.sourceforge.net/DTD/sodipodi-0.dtd"
   xmlns="http://www.w3.org/2000/svg"
   xmlns:svg="http://www.w3.org/2000/svg">
  <sodipodi:namedview
     id="namedview1"
     pagecolor="#ffffff"
     bordercolor="#999999"
     borderopacity="1"
     inkscape:showpageshadow="2"
     inkscape:pageopacity="0"
     inkscape:pagecheckerboard="0"
     inkscape:deskcolor="#d1d1d1"
     inkscape:zoom="34.727273"
     inkscape:cx="11"
     inkscape:cy="11"
     inkscape:window-width="1920"
     inkscape:window-height="996"
     inkscape:window-x="0"
     inkscape:window-y="0"
     inkscape:window-maximized="1"
     inkscape:current-layer="svg1" />
  <defs
     id="defs1">
    <style
       type="text/css"
       id="current-color-scheme">.ColorScheme-Text {color:#fcfcfc;}</style>
  </defs>
  <path
     class="ColorScheme-Text"
     style="fill:#000000;fill-opacity:1;stroke:none"
     d="m 3,6 c 0,3 0,5 0,8 0,3 3,3 3,3 h 1 c 0,0 0,2 3,2 3,0 1,0 4,0 3,0 3,-3 3,-3 V 10 L 13,6 H 12 L 9,3 H 6 C 6,3 3,3 3,6 Z M 4,6 C 4,4 6,4 6,4 h 2 v 2 c 0,0 -1,0 -1,2 0,2 0,8 0,8 H 6 C 6,16 4,16 4,14 4,12 4,8 4,6 Z M 8,9 C 8,7 10,7 10,7 h 2 v 4 h 4 v 5 c 0,0 0,2 -2,2 -2,0 -2,0 -4,0 -2,0 -2,-2 -2,-2 0,0 0,-5 0,-7 z"
     id="path1" />
</svg>
