<?xml version="1.0" encoding="UTF-8" standalone="no"?>
<svg
   width="24"
   height="24"
   viewBox="0 0 24 24"
   version="1.1"
   id="svg2"
   sodipodi:docname="notifications.svg"
   inkscape:version="1.3.2 (091e20ef0f, 2023-11-25)"
   xmlns:inkscape="http://www.inkscape.org/namespaces/inkscape"
   xmlns:sodipodi="http://sodipodi.sourceforge.net/DTD/sodipodi-0.dtd"
   xmlns="http://www.w3.org/2000/svg"
   xmlns:svg="http://www.w3.org/2000/svg">
  <defs
     id="defs2" />
  <sodipodi:namedview
     id="namedview2"
     pagecolor="#a2a2a2"
     bordercolor="#999999"
     borderopacity="1"
     inkscape:showpageshadow="2"
     inkscape:pageopacity="0"
     inkscape:pagecheckerboard="0"
     inkscape:deskcolor="#d1d1d1"
     showgrid="false"
     inkscape:zoom="11.22532"
     inkscape:cx="15.233419"
     inkscape:cy="21.202068"
     inkscape:window-width="1920"
     inkscape:window-height="994"
     inkscape:window-x="0"
     inkscape:window-y="0"
     inkscape:window-maximized="1"
     inkscape:current-layer="svg2">
    <inkscape:grid
       id="grid2"
       units="px"
       originx="0"
       originy="0"
       spacingx="1"
       spacingy="1"
       empcolor="#0099e5"
       empopacity="0.30196078"
       color="#0099e5"
       opacity="0.14902"
       empspacing="5"
       dotted="false"
       gridanglex="30"
       gridanglez="30"
       visible="false" />
  </sodipodi:namedview>
  <style
     type="text/css"
     id="current-color-scheme">
.ColorScheme-Text { 
    color:#ffffff;
}
.ColorScheme-ButtonFocus { color:#3daee9; }
.ColorScheme-NegativeText { color: #da4453; }
</style>
  <g
     id="notification-inactive"
     transform="translate(-208.82493,-685.24546)">
    <path
       style="fill:none"
       inkscape:connector-curvature="0"
       d="m 209.82493,686.24546 h 22 v 22 h -22 z"
       id="path6" />
    <path
       d="m 220.81973,689.24546 c 0.67634,0 0.97957,0.51317 0.97957,1.11953 1.46942,0.25659 2.91541,1.11954 3.10198,2.75222 0.34988,3.42855 0.53648,5.90082 3.28856,8.32652 0.0466,0.95626 -0.27992,1.35864 -1.0962,1.80173 h -12.54793 c -0.83963,-0.4432 -1.14285,-0.86882 -1.11954,-1.80173 2.77556,-2.4723 2.93884,-4.8514 3.28856,-8.32652 0.1866,-1.63271 1.65601,-2.49565 3.12541,-2.75222 0,-0.60636 0.27991,-1.11953 0.97956,-1.11953 z m -6.36739,12.61793 c 0.07,0.13995 0.20993,0.31208 0.32657,0.38207 h 12.05822 c 0.11663,-0.07 0.27991,-0.2421 0.32657,-0.38207 -2.6589,-2.44899 -2.91542,-5.22454 -3.26542,-8.60624 -0.69965,-2.63559 -5.48111,-2.63559 -6.15739,0 -0.60637,3.52198 -0.32657,5.90083 -3.28855,8.60624 z"
       fill-rule="evenodd"
       id="path67-3"
       style="fill:#232627;fill-opacity:1;stroke-width:0.0285712"
       sodipodi:nodetypes="sccccccccssccccccc" />
    <path
       d="m 222.19025,703.49624 c 0.2799,0.81628 -0.46652,1.74922 -1.3528,1.74922 -0.88628,0 -1.6327,-0.93291 -1.35279,-1.74922 z"
       fill-rule="evenodd"
       id="path69-6"
       style="fill:#232627;fill-opacity:1;stroke-width:0.0285712" />
  </g>
</svg>
