<?xml version="1.0" encoding="UTF-8" standalone="no"?>
<svg
   width="24"
   height="24"
   viewBox="0 0 24 24"
   version="1.1"
   id="svg3"
   sodipodi:docname="notification-active.svg"
   inkscape:version="1.3.2 (091e20ef0f, 2023-11-25)"
   xmlns:inkscape="http://www.inkscape.org/namespaces/inkscape"
   xmlns:sodipodi="http://sodipodi.sourceforge.net/DTD/sodipodi-0.dtd"
   xmlns="http://www.w3.org/2000/svg"
   xmlns:svg="http://www.w3.org/2000/svg">
  <defs
     id="defs3" />
  <sodipodi:namedview
     id="namedview3"
     pagecolor="#ffffff"
     bordercolor="#999999"
     borderopacity="1"
     inkscape:showpageshadow="2"
     inkscape:pageopacity="0"
     inkscape:pagecheckerboard="0"
     inkscape:deskcolor="#d1d1d1"
     showgrid="false"
     inkscape:zoom="15.875"
     inkscape:cx="13.984252"
     inkscape:cy="14.362205"
     inkscape:window-width="1920"
     inkscape:window-height="994"
     inkscape:window-x="0"
     inkscape:window-y="0"
     inkscape:window-maximized="1"
     inkscape:current-layer="svg3">
    <inkscape:grid
       id="grid3"
       units="px"
       originx="0"
       originy="0"
       spacingx="1"
       spacingy="1"
       empcolor="#0099e5"
       empopacity="0.30196078"
       color="#0099e5"
       opacity="0.14902"
       empspacing="5"
       dotted="false"
       gridanglex="30"
       gridanglez="30"
       visible="false" />
  </sodipodi:namedview>
  <style
     type="text/css"
     id="current-color-scheme">
.ColorScheme-Text { 
    color:#ffffff;
}
.ColorScheme-ButtonFocus { color:#3daee9; }
.ColorScheme-NegativeText { color: #da4453; }
</style>
  <path
     style="fill:none;stroke-width:1.45459"
     inkscape:connector-curvature="0"
     d="M 1,1 H 23 V 23 H 1 Z"
     id="path14" />
  <path
     d="m 6.1810276,4.065764 c 0.5491858,-0.198027 1.1306308,0.06587 1.3244328,0.593846 0,0.06586 0.032312,0.09901 0.032312,0.16494 1.4859242,-0.296826 3.1979346,0 3.9409466,1.517593 1.582755,3.233153 2.648712,5.575153 6.137223,6.92778 0.387603,0.923666 0.226098,1.418499 -0.419975,2.144347 L 5.1797001,19.999996 C 4.2429623,19.901006 3.8230017,19.604149 3.5000006,18.680336 l 0.096941,-0.197995 C 5.2766531,15.315448 4.501295,12.57715 3.6614326,9.34397 3.2414721,7.694517 4.3397262,6.308797 5.6640418,5.51705 5.6317308,5.48405 5.6317308,5.45118 5.5995498,5.385177 5.405663,4.857364 5.6640418,4.263517 6.1809949,4.065484 Z M 4.727611,9.344117 c 0.8398105,3.298919 1.5503696,6.070072 -0.096946,9.369238 0.1291142,0.131921 0.2906248,0.16496 0.4199541,0.198001 L 16.61447,14.490736 c 0.06456,-0.09899 0.161538,-0.263953 0.19389,-0.395888 C 13.352012,12.643288 12.124678,10.037096 10.574346,6.837063 8.9593336,4.527817 4.4045835,6.27629 4.6630732,9.11347 l 0.06462,0.230873 z"
     fill-rule="evenodd"
     id="path67-7"
     style="fill:#232627;fill-opacity:1;stroke-width:0.0428584" />
  <path
     d="m 13.578309,17.129943 c 0.06456,0.09901 0.129185,0.230926 0.193885,0.362846 0.323008,0.890754 -0.09695,1.913419 -0.969134,2.243332 -0.872122,0.362833 -1.841104,-0.09901 -2.164105,-0.956686 -0.06456,-0.131926 -0.09695,-0.2969 -0.129199,-0.428927 l 3.068611,-1.220673 z"
     fill-rule="evenodd"
     id="path69-5"
     style="fill:#232627;fill-opacity:1;stroke-width:0.0428584" />
  <path
     d="m 14.271041,5.42961 c 2.484536,1.0006 3.639215,3.21662 4.059261,5.789678 L 19.10016,11.112029 C 18.64519,8.21713 17.315492,5.822597 14.585975,4.678877 l -0.314907,0.75048 z"
     id="path71"
     style="fill:#3b7e91;fill-opacity:1;stroke-width:0.0464296" />
  <path
     d="m 16.685869,4.89355 c 1.609673,0.643327 2.344494,2.037027 2.58942,3.71676 L 19.800213,8.53892 C 19.485286,6.680382 18.645477,5.143688 16.895744,4.393082 l -0.210026,0.500366 z"
     id="path73"
     style="fill:#3b7f91;fill-opacity:1;stroke-width:0.0464296" />
  <path
     d="m 18.295443,4.357317 c 1.15475,0.464653 1.679661,1.465393 1.854619,2.680526 L 20.500001,6.966399 C 20.290002,5.644057 19.695102,4.536057 18.435367,3.999997 Z"
     id="path75"
     style="fill:#3b8091;fill-opacity:1;stroke-width:0.0464296" />
</svg>
