<?xml version="1.0" encoding="UTF-8" standalone="no"?>
<!-- Created with Inkscape (http://www.inkscape.org/) -->

<svg
   width="64"
   version="1.1"
   height="64"
   id="svg1"
   sodipodi:docname="start-here-kde.svg"
   inkscape:version="1.3.2 (091e20ef0f, 2023-11-25)"
   xmlns:inkscape="http://www.inkscape.org/namespaces/inkscape"
   xmlns:sodipodi="http://sodipodi.sourceforge.net/DTD/sodipodi-0.dtd"
   xmlns:xlink="http://www.w3.org/1999/xlink"
   xmlns="http://www.w3.org/2000/svg"
   xmlns:svg="http://www.w3.org/2000/svg">
  <sodipodi:namedview
     id="namedview1"
     pagecolor="#ffffff"
     bordercolor="#999999"
     borderopacity="1"
     inkscape:showpageshadow="2"
     inkscape:pageopacity="0"
     inkscape:pagecheckerboard="0"
     inkscape:deskcolor="#d1d1d1"
     inkscape:zoom="4.2094951"
     inkscape:cx="21.617795"
     inkscape:cy="82.670248"
     inkscape:window-width="1920"
     inkscape:window-height="994"
     inkscape:window-x="0"
     inkscape:window-y="0"
     inkscape:window-maximized="1"
     inkscape:current-layer="layer1" />
  <defs
     id="defs5455">
    <linearGradient
       inkscape:collect="always"
       xlink:href="#linearGradient865"
       id="linearGradient869"
       gradientUnits="userSpaceOnUse"
       gradientTransform="matrix(0.58372348,0,0,0.56410249,364.19506,495.77237)"
       x1="25"
       y1="21"
       x2="3"
       y2="21" />
    <linearGradient
       id="linearGradient865"
       x1="0"
       x2="0"
       y1="0"
       y2="1">
      <stop
         offset="0%"
         style="stop-color:#096b83;stop-opacity:1"
         id="stop861" />
      <stop
         offset="100%"
         style="stop-color:#11c3ee;stop-opacity:1"
         id="stop863" />
    </linearGradient>
    <linearGradient
       inkscape:collect="always"
       xlink:href="#linearGradient865"
       id="linearGradient871"
       gradientUnits="userSpaceOnUse"
       gradientTransform="matrix(0.58372348,0,0,0.56410249,364.19506,495.77237)"
       x1="17"
       y1="13"
       x2="28.626051"
       y2="13.214286" />
  </defs>
  <metadata
     id="metadata5458" />
  <g
     inkscape:label="Capa 1"
     inkscape:groupmode="layer"
     id="layer1"
     transform="matrix(1 0 0 1 -384.57143 -483.798)">
    <flowRoot
       line-height="125%"
       style="font-size:32.500004;font-family:sans-serif"
       id="flowRoot4170"><flowRegion
         id="flowRegion4172"><rect
           width="87.75001"
           x="452.32144"
           y="489.79807"
           height="48.750004"
           id="rect4174" /></flowRegion><flowPara
         id="flowPara4176">Plasm</flowPara></flowRoot>
    <path
       id="rect4328-7"
       d="m 398.20179,488.798 h 36.73928 c 4.78121,0 8.63036,3.90188 8.63036,8.74859 v 36.50282 c 0,4.84671 -3.84915,8.74859 -8.63036,8.74859 h -36.73928 c -4.78121,0 -8.63036,-3.90188 -8.63036,-8.74859 v -36.50282 c 0,-4.84671 3.84915,-8.74859 8.63036,-8.74859 z"
       style="opacity:0.3;fill:#3b5a87;fill-opacity:1;fill-rule:nonzero;stroke:none;stroke-width:0;stroke-linecap:round;stroke-linejoin:round;stroke-miterlimit:4;stroke-dasharray:none;stroke-opacity:1"
       inkscape:connector-curvature="0" />
    <path
       class="fil0"
       d="m 430.51753,511.9711 c 0,1.66388 -0.34436,2.99498 -1.03305,3.9933 -1.20523,12.64537 -24.79305,-0.3328 -32.71304,19.63359 4.13216,-28.61849 32.36868,-15.30754 33.74609,-23.62689 z"
       id="path6-5"
       style="fill:url(#linearGradient869);fill-opacity:1;stroke-width:0.0626875;image-rendering:optimizeQuality;shape-rendering:geometricPrecision;text-rendering:geometricPrecision" />
    <path
       class="fil0"
       d="m 436.37142,495.99801 c 0,1.83025 -0.51651,3.16135 -1.2052,4.15965 -0.17226,2.6622 -1.54958,4.32607 -3.61565,5.15799 -0.17226,0.83193 -0.51653,1.49748 -0.86087,2.16303 -1.20522,12.64537 -24.79304,-0.49918 -32.71306,19.63362 1.03305,-6.82185 3.27132,-11.1479 6.19828,-14.14287 7.40348,-19.8 30.81912,-9.31765 32.1965,-16.97142 z m -11.88,7.15462 c 0,0.9983 -0.17226,1.83025 -0.68869,2.3294 -0.68869,7.32102 -14.29042,-0.16632 -18.93912,11.48067 2.41043,-16.63864 18.76694,-8.98487 19.62781,-13.81007 z"
       id="path8-3"
       style="fill:url(#linearGradient871);fill-opacity:1;fill-rule:evenodd;stroke-width:0.0626875;image-rendering:optimizeQuality;shape-rendering:geometricPrecision;text-rendering:geometricPrecision" />
  </g>
</svg>
