<?xml version="1.0" encoding="UTF-8" standalone="no"?>
<svg
   viewBox="0 0 22 22"
   width="22"
   height="22"
   version="1.1"
   id="svg2"
   sodipodi:docname="disk-quota-high.svg"
   inkscape:version="1.3.2 (091e20ef0f, 2023-11-25)"
   xmlns:inkscape="http://www.inkscape.org/namespaces/inkscape"
   xmlns:sodipodi="http://sodipodi.sourceforge.net/DTD/sodipodi-0.dtd"
   xmlns="http://www.w3.org/2000/svg"
   xmlns:svg="http://www.w3.org/2000/svg">
  <sodipodi:namedview
     id="namedview2"
     pagecolor="#ffffff"
     bordercolor="#999999"
     borderopacity="1"
     inkscape:showpageshadow="2"
     inkscape:pageopacity="0"
     inkscape:pagecheckerboard="0"
     inkscape:deskcolor="#d1d1d1"
     inkscape:zoom="7.9375"
     inkscape:cx="11.338583"
     inkscape:cy="40.818898"
     inkscape:window-width="1920"
     inkscape:window-height="994"
     inkscape:window-x="0"
     inkscape:window-y="0"
     inkscape:window-maximized="1"
     inkscape:current-layer="svg2" />
  <defs
     id="defs1">
    <style
       type="text/css"
       id="current-color-scheme">.ColorScheme-Text { color:#232629; }
.ColorScheme-NegativeText { color: #da4453; }
</style>
  </defs>
  <g
     id="22-22-disk-quota-high-2">
    <rect
       style="opacity:0.00100002"
       width="22"
       height="22"
       x="0"
       y="0"
       id="rect18-9" />
    <path
       d="M 15.77551,3 H 6.22449 C 5.55102,3 5,3.6 5,4.333333 V 17.666664 C 5,18.400001 5.55102,19 6.22449,19 h 9.55102 C 16.44898,19 17,18.400001 17,17.666664 V 4.333333 C 17,3.6 16.44898,3 15.77551,3 Z m 0.22451,15 v 0 h -10 v 0 L 5.99502,3.99714 6.00002,4 h 10 v 0 z"
       id="path2-6-8-6"
       style="fill:#232627;fill-opacity:1;stroke-width:0.31944"
       sodipodi:nodetypes="sssssssssccccccccc" />
    <path
       d="m 11,6.333333 c -1.86275,0 -3.33333,1.470591 -3.33333,3.333336 C 7.66667,11.529415 9.13725,13 11,13 12.86275,13 14.33333,11.529415 14.33333,9.666669 14.33333,7.803924 12.86275,6.333333 11,6.333333 Z m 0.0454,3.333336 z"
       id="path6-3-75-7-1"
       style="fill:#ff9955;fill-opacity:1;stroke-width:0.98038"
       sodipodi:nodetypes="ssssscccc" />
    <path
       d="m 7.92518,17 h 6.25756 c 0.22893,0 0.38155,-0.2 0.38155,-0.5 0,-0.300001 -0.15262,-0.5 -0.38155,-0.5 H 7.92518 c -0.22893,0 -0.38155,0.199999 -0.38155,0.5 0,0.3 0.15262,0.5 0.38155,0.5 z"
       id="path10-35-9-2"
       style="fill:#ff9955;fill-opacity:1;stroke-width:0.436782" />
    <path
       d="m 10.98372,8.491666 c -0.66808,0 -1.1955,0.518383 -1.1955,1.175001 0,0.656618 0.52742,1.174999 1.1955,1.174999 0.66808,0 1.1955,-0.518381 1.1955,-1.174999 0,-0.656618 -0.52742,-1.175001 -1.1955,-1.175001 z m 0.0163,1.175001 z"
       id="path6-3-7-3-6-2-9"
       style="fill:#d6dbf1;fill-opacity:1;stroke-width:0.348591"
       sodipodi:nodetypes="ssssscccc" />
  </g>
</svg>
