<?xml version="1.0" encoding="UTF-8" standalone="no"?>
<svg
   viewBox="0 0 22 22"
   width="22"
   height="22"
   version="1.1"
   id="svg2"
   sodipodi:docname="disk-quota.svg"
   inkscape:version="1.3.2 (091e20ef0f, 2023-11-25)"
   xmlns:inkscape="http://www.inkscape.org/namespaces/inkscape"
   xmlns:sodipodi="http://sodipodi.sourceforge.net/DTD/sodipodi-0.dtd"
   xmlns="http://www.w3.org/2000/svg"
   xmlns:svg="http://www.w3.org/2000/svg">
  <sodipodi:namedview
     id="namedview2"
     pagecolor="#ffffff"
     bordercolor="#999999"
     borderopacity="1"
     inkscape:showpageshadow="2"
     inkscape:pageopacity="0"
     inkscape:pagecheckerboard="0"
     inkscape:deskcolor="#d1d1d1"
     inkscape:zoom="7.9375"
     inkscape:cx="10.96063"
     inkscape:cy="11.086614"
     inkscape:window-width="1920"
     inkscape:window-height="994"
     inkscape:window-x="0"
     inkscape:window-y="0"
     inkscape:window-maximized="1"
     inkscape:current-layer="svg2" />
  <defs
     id="defs1">
    <style
       type="text/css"
       id="current-color-scheme">.ColorScheme-Text { color: #fcfcfc; }
</style>
  </defs>
  <g
     id="22-22-disk-quota">
    <rect
       style="opacity:0.00100002;fill:#d6dbf1;fill-opacity:1"
       width="22"
       height="22"
       x="0"
       y="0"
       id="rect4" />
    <path
       d="M 15.77549,3 H 6.22447 C 5.551,3 4.99998,3.6 4.99998,4.333333 V 17.666664 C 4.99998,18.400001 5.551,19 6.22447,19 h 9.55102 c 0.67347,0 1.22449,-0.599999 1.22449,-1.333336 V 4.333333 C 16.99998,3.6 16.44896,3 15.77549,3 Z M 16,18 v 0 H 6 v 0 L 5.9949672,3.9971396 6,4 h 10 v 0 z"
       id="path2-6-8"
       style="fill:#232627;fill-opacity:1;stroke-width:0.31944"
       sodipodi:nodetypes="sssssssssccccccccc" />
    <path
       d="m 10.99998,6.333333 c -1.86275,0 -3.33333,1.470591 -3.33333,3.333336 0,1.862746 1.47058,3.333331 3.33333,3.333331 1.86275,0 3.33333,-1.470585 3.33333,-3.333331 0,-1.862745 -1.47058,-3.333336 -3.33333,-3.333336 z m 0.0454,3.333336 z"
       id="path6-3-75-7"
       style="fill:#232627;fill-opacity:1;stroke-width:0.98038"
       sodipodi:nodetypes="ssssscccc" />
    <path
       d="m 7.92516,17 h 6.25756 c 0.22893,0 0.38155,-0.2 0.38155,-0.5 0,-0.300001 -0.15262,-0.5 -0.38155,-0.5 H 7.92516 c -0.22893,0 -0.38155,0.199999 -0.38155,0.5 0,0.3 0.15262,0.5 0.38155,0.5 z"
       id="path10-35-9"
       style="fill:#232627;fill-opacity:1;stroke-width:0.436782" />
    <path
       d="m 10.9837,8.491666 c -0.66808,0 -1.1955,0.518383 -1.1955,1.175001 0,0.656618 0.52742,1.174999 1.1955,1.174999 0.66808,0 1.1955,-0.518381 1.1955,-1.174999 0,-0.656618 -0.52742,-1.175001 -1.1955,-1.175001 z M 11,9.666667 Z"
       id="path6-3-7-3-6-2"
       style="fill:#d6dbf1;fill-opacity:1;stroke-width:0.348591"
       sodipodi:nodetypes="ssssscccc" />
  </g>
</svg>
