<?xml version="1.0" encoding="UTF-8" standalone="no"?>
<svg
   width="32.000004"
   height="32"
   version="1"
   id="svg12"
   sodipodi:docname="klipper.svg"
   inkscape:version="1.3.2 (091e20ef0f, 2023-11-25)"
   xmlns:inkscape="http://www.inkscape.org/namespaces/inkscape"
   xmlns:sodipodi="http://sodipodi.sourceforge.net/DTD/sodipodi-0.dtd"
   xmlns="http://www.w3.org/2000/svg"
   xmlns:svg="http://www.w3.org/2000/svg"
   xmlns:rdf="http://www.w3.org/1999/02/22-rdf-syntax-ns#"
   xmlns:cc="http://creativecommons.org/ns#"
   xmlns:dc="http://purl.org/dc/elements/1.1/">
  <style
     id="current-color-scheme"
     type="text/css">.ColorScheme-Text { color:#d6dbf1; }
</style>
  <metadata
     id="metadata18">
    <rdf:RDF>
      <cc:Work
         rdf:about="">
        <dc:format>image/svg+xml</dc:format>
        <dc:type
           rdf:resource="http://purl.org/dc/dcmitype/StillImage" />
      </cc:Work>
    </rdf:RDF>
  </metadata>
  <defs
     id="defs16" />
  <sodipodi:namedview
     pagecolor="#201933"
     bordercolor="#000000"
     borderopacity="1"
     objecttolerance="10"
     gridtolerance="10"
     guidetolerance="10"
     inkscape:pageopacity="0"
     inkscape:pageshadow="2"
     inkscape:window-width="1920"
     inkscape:window-height="994"
     id="namedview14"
     showgrid="true"
     inkscape:zoom="11.313709"
     inkscape:cx="16.263455"
     inkscape:cy="8.485281"
     inkscape:window-x="0"
     inkscape:window-y="0"
     inkscape:window-maximized="1"
     inkscape:current-layer="svg12"
     inkscape:document-rotation="0"
     inkscape:pagecheckerboard="true"
     inkscape:lockguides="false"
     showguides="false"
     inkscape:showpageshadow="2"
     inkscape:deskcolor="#201933">
    <sodipodi:guide
       position="-12.79029,40.51587"
       orientation="1,0"
       id="guide8806"
       inkscape:locked="false" />
    <inkscape:grid
       id="grid1"
       units="px"
       originx="0"
       originy="0"
       spacingx="1"
       spacingy="1"
       empcolor="#0099e5"
       empopacity="0.30196078"
       color="#0099e5"
       opacity="0.14901961"
       empspacing="5"
       dotted="false"
       gridanglex="30"
       gridanglez="30"
       visible="true" />
  </sodipodi:namedview>
  <g
     id="klipper-3"
     transform="translate(31.999853,10)">
    <g
       id="g7533">
      <rect
         y="-10"
         x="-31.999853"
         height="32"
         width="32.000004"
         id="rect4230"
         style="fill:none;fill-opacity:1;stroke:none" />
      <path
         d="m -22.76067,4 h 6.52161 c 0.132093,0 0.239207,-0.223877 0.239207,-0.500001 C -15.999853,3.223877 -16.106956,3 -16.23906,3 h -6.52161 c -0.13209,0 -0.239183,0.223877 -0.239183,0.499999 0,0.276124 0.107086,0.500001 0.239183,0.500001 z"
         id="path4-3"
         style="fill:#232627;fill-opacity:1;stroke-width:0.34583" />
      <path
         d="m -22.806898,0 h 4.61409 c 0.106512,0 0.192955,-0.2238768 0.192955,-0.4999994 C -17.999853,-0.7761232 -18.086176,-1 -18.192808,-1 h -4.61409 c -0.10668,0 -0.192955,0.2238768 -0.192955,0.5000006 0,0.2761226 0.08632,0.4999994 0.192955,0.4999994 z"
         id="path6-6"
         style="fill:#232627;fill-opacity:1;stroke-width:0.310613" />
      <path
         d="m -22.620799,8 h 8.24189 c 0.20934,0 0.379056,-0.223877 0.379056,-0.499999 C -13.999853,7.223877 -14.169568,7 -14.378909,7 h -8.24189 c -0.209338,0 -0.379054,0.223877 -0.379054,0.500001 0,0.276122 0.169713,0.499999 0.379054,0.499999 z"
         id="path8"
         style="fill:#232627;fill-opacity:1;stroke-width:0.435349" />
      <path
         d="M -12.350182,12 H -22.64955 c -0.193454,0 -0.350303,0.223878 -0.350303,0.500001 0,0.276122 0.156849,0.499999 0.350303,0.499999 h 10.299368 c 0.193455,0 0.350329,-0.223877 0.350329,-0.499999 C -11.999853,12.223878 -12.156727,12 -12.350182,12 Z"
         id="path10-7"
         style="fill:#232627;fill-opacity:1;stroke-width:0.418517" />
      <path
         d="m -9.9996401,-2 c -1.1029409,0 -2.0002129,0.8237446 -2.0002129,1.8361751 v 1.5063929 1.178386 7.788712 c 0,0.0351 0.008,0.06801 0.02351,0.09809 5.21e-4,0.0011 2.83e-4,0.0024 8.7e-4,0.0036 l 1.736147,3.44792 C -10.196166,13.945075 -10.102519,14 -9.9996271,14 c 0.102895,0 0.196505,-0.05492 0.239688,-0.140743 l 0.892588,-1.772756 c 7.18e-4,-0.0013 0.0018,-0.0023 0.0023,-0.0036 5.8e-4,-0.0011 3.7e-4,-0.0023 9.18e-4,-0.0034 l 0.839896,-1.668088 c 5.79e-4,-0.0011 3.08e-4,-0.0024 8.72e-4,-0.0036 0.014665,-0.03009 0.023512,-0.06299 0.023512,-0.09809 V 2.521018 1.342632 -0.1637608 c 0,-1.0124305 -0.897277,-1.8361752 -2.000082,-1.8361752 z m -2.13e-4,12 v 0 -7 0 z m 0.760775,1.66925 c -0.488778,-0.149178 -1.0372779,-0.14829 -1.5211379,1.18e-4 l -0.562609,-1.117278 h 2.6462669 z M -9.9998531,10 V 3 3 Z m 1.472159,-7.715 h -2.9440299 v 0 z m -1.471946,10.894815 -0.5364809,-1.065401 c 0.343392,-0.09422 0.7253099,-0.09475 1.0728859,6e-5 z M -8.5276941,1 h -2.9440299 v -1.1638249 c 0,-0.7451472 0.660415,-1.3513267 1.4720839,-1.3513267 0.811668,0 1.471946,0.6061795 1.471946,1.3513267 z"
         id="path12-5"
         style="fill:#232627;fill-opacity:1;stroke-width:0.253015"
         sodipodi:nodetypes="csccscccsccccccsccsccccccccccccccccccccccccssccss" />
      <path
         d="M -7.2447451,-5.999998 H -24.754932 c -1.234694,0 -2.244921,0.9 -2.244921,1.999998 v 19.999999 c 0,1.100003 1.010227,2.000003 2.244921,2.000003 h 17.5101869 c 1.234695,0 2.244892,-0.9 2.244892,-2.000003 V -4 c 0,-1.099998 -1.010197,-1.999998 -2.244892,-1.999998 z m 1.244892,21.999997 c 0,0.549995 -0.627569,0.999995 -1.244892,0.999995 H -24.754932 c -0.617373,0 -1.244921,-0.45 -1.244921,-0.999995 V -4 c 0,-0.549998 0.627548,-0.999998 1.244921,-0.999998 h 17.5101869 c 0.617323,0 1.244892,0.45 1.244892,0.999998 z"
         id="path2-3"
         style="fill:#232627;fill-opacity:1;stroke-width:0.529727"
         sodipodi:nodetypes="ssssssssssssssssss" />
    </g>
  </g>
</svg>
