<?xml version="1.0" encoding="UTF-8" standalone="no"?>
<svg
   viewBox="0 0 32 32"
   version="1.1"
   id="svg1"
   sodipodi:docname="go-jump.svg"
   inkscape:version="1.3.2 (091e20ef0f, 2023-11-25)"
   xmlns:inkscape="http://www.inkscape.org/namespaces/inkscape"
   xmlns:sodipodi="http://sodipodi.sourceforge.net/DTD/sodipodi-0.dtd"
   xmlns="http://www.w3.org/2000/svg"
   xmlns:svg="http://www.w3.org/2000/svg">
  <defs
     id="defs1" />
  <sodipodi:namedview
     id="namedview1"
     pagecolor="#ffffff"
     bordercolor="#999999"
     borderopacity="1"
     inkscape:showpageshadow="2"
     inkscape:pageopacity="0"
     inkscape:pagecheckerboard="0"
     inkscape:deskcolor="#d1d1d1"
     inkscape:zoom="22.25"
     inkscape:cx="7.011236"
     inkscape:cy="28.314607"
     inkscape:window-width="1920"
     inkscape:window-height="944"
     inkscape:window-x="0"
     inkscape:window-y="0"
     inkscape:window-maximized="1"
     inkscape:current-layer="svg1" />
  <style
     type="text/css"
     id="current-color-scheme">.ColorScheme-Text {color:#fcfcfc;}</style>
  <path
     d="m 25,15 c -0.552285,0 -1,0.447715 -1,1 0,0.552285 0.447715,1 1,1 0.552285,0 1,-0.447715 1,-1 0,-0.552285 -0.447715,-1 -1,-1 z M 6.7070309,2 6,2.7070312 c 0,1e-7 10.718262,10.7065348 11.652344,11.6406248 0.934098,0.93409 0.952409,2.340559 -0.0059,3.298828 L 6,29.292969 6.7070309,30 18.353516,18.353516 c 0.939499,-0.939499 1.646498,-3.060533 0,-4.707032 z"
     class="ColorScheme-Text"
     fill="currentColor"
     id="path1" />
  <g
     id="right-arrow"
     transform="matrix(0,3.779526,-3.779526,0,986.5192,-11.99996)"
     style="stroke-width:0.264583">
    <rect
       style="opacity:1;fill:none;fill-opacity:1;stroke:none;stroke-width:0.0099001;stroke-linecap:square;stroke-linejoin:miter;stroke-miterlimit:4;stroke-dasharray:none;stroke-dashoffset:0;stroke-opacity:1"
       id="rect4168"
       width="3.7041669"
       height="3.7041664"
       x="254.93123"
       y="15.610413"
       transform="matrix(0,1,1,0,0,0)" />
    <path
       style="fill:#1e2431;fill-opacity:1;fill-rule:evenodd;stroke:none;stroke-width:0.0700043px;stroke-linecap:butt;stroke-linejoin:miter;stroke-opacity:1"
       d="m 17.462495,256.25414 -1.058333,1.05833 h 2.116667 z"
       id="path4170"
       inkscape:connector-curvature="0"
       class="ColorScheme-Text" />
  </g>
</svg>
