<?xml version="1.0" encoding="UTF-8" standalone="no"?>
<svg
   width="22"
   height="22"
   version="1.1"
   id="svg3"
   sodipodi:docname="notification-active.svg"
   inkscape:version="1.3.2 (091e20ef0f, 2023-11-25)"
   xmlns:inkscape="http://www.inkscape.org/namespaces/inkscape"
   xmlns:sodipodi="http://sodipodi.sourceforge.net/DTD/sodipodi-0.dtd"
   xmlns="http://www.w3.org/2000/svg"
   xmlns:svg="http://www.w3.org/2000/svg">
  <defs
     id="defs3" />
  <sodipodi:namedview
     id="namedview3"
     pagecolor="#b6b6b6"
     bordercolor="#999999"
     borderopacity="1"
     inkscape:showpageshadow="2"
     inkscape:pageopacity="0"
     inkscape:pagecheckerboard="0"
     inkscape:deskcolor="#d1d1d1"
     showgrid="true"
     inkscape:zoom="17.318182"
     inkscape:cx="8.0839894"
     inkscape:cy="9.8740156"
     inkscape:window-width="1920"
     inkscape:window-height="994"
     inkscape:window-x="0"
     inkscape:window-y="0"
     inkscape:window-maximized="1"
     inkscape:current-layer="svg3">
    <inkscape:grid
       id="grid3"
       units="px"
       originx="-0.097152198"
       originy="-44.007846"
       spacingx="1"
       spacingy="1"
       empcolor="#0099e5"
       empopacity="0.30196078"
       color="#0099e5"
       opacity="0.14902"
       empspacing="5"
       dotted="false"
       gridanglex="30"
       gridanglez="30"
       visible="true" />
  </sodipodi:namedview>
  <style
     type="text/css"
     id="current-color-scheme">
.ColorScheme-Text { 
    color:#ffffff;
}
.ColorScheme-ButtonFocus { color:#3daee9; }
.ColorScheme-NegativeText { color: #da4453; }
</style>
  <path
     style="fill:none;stroke-width:1.45459"
     inkscape:connector-curvature="0"
     d="M -6.2499998e-7,3.75e-6 H 21.999999 V 22.000004 H -6.2499998e-7 Z"
     id="path14" />
  <path
     d="m 5.181027,3.0657677 c 0.5491858,-0.1980268 1.1306308,0.065865 1.3244328,0.5938466 0,0.065865 0.032312,0.099006 0.032312,0.1649399 1.4859237,-0.2968265 3.1979342,0 3.9409462,1.5175933 1.582755,3.233153 2.648712,5.5751525 6.137223,6.9277795 0.387603,0.923666 0.226098,1.418499 -0.419975,2.144347 L 4.1796995,19 C 3.2429617,18.90101 2.8230011,18.604153 2.5,17.68034 L 2.596941,17.482345 C 4.2766525,14.315452 3.5012944,11.577154 2.6614317,8.3439738 2.2414712,6.6945206 3.3397253,5.3088007 4.6640409,4.5170542 4.6317297,4.4840542 4.6317297,4.4511872 4.5995486,4.3851808 4.4056618,3.8573676 4.6640409,3.263521 5.1809937,3.0654877 Z M 3.7276104,8.3441205 C 4.5674209,11.64304 5.27798,14.414193 3.6306644,17.713359 3.7597786,17.84528 3.9212892,17.878319 4.0506185,17.91136 L 15.614469,13.49074 c 0.06456,-0.09899 0.161538,-0.263953 0.19389,-0.395888 C 12.352011,11.643292 11.124677,9.0371004 9.574345,5.8370673 7.9593331,3.5278209 3.4045829,5.2762941 3.6630726,8.1134737 l 0.06462,0.2308735 z"
     fill-rule="evenodd"
     id="path67-7"
     style="fill:#232627;fill-opacity:1;stroke-width:0.0428584" />
  <path
     d="m 12.578308,16.129947 c 0.06456,0.09901 0.129185,0.230926 0.193885,0.362846 0.323008,0.890754 -0.09695,1.913419 -0.969134,2.243332 -0.872122,0.362833 -1.841104,-0.09901 -2.164105,-0.956686 -0.06456,-0.131926 -0.09695,-0.2969 -0.129199,-0.428927 l 3.068611,-1.220673 z"
     fill-rule="evenodd"
     id="path69-5"
     style="fill:#232627;fill-opacity:1;stroke-width:0.0428584" />
  <path
     d="m 13.27104,4.4296142 c 2.484536,1.0005998 3.639215,3.2166196 4.059261,5.7896778 l 0.769858,-0.107259 C 17.645189,7.2171339 16.315491,4.8226007 13.585974,3.678881 l -0.314907,0.7504799 z"
     id="path71"
     style="fill:#3b7e91;fill-opacity:1;stroke-width:0.0464296" />
  <path
     d="m 15.685868,3.8935543 c 1.609673,0.6433266 2.344494,2.0370265 2.58942,3.7167595 l 0.524924,-0.071388 C 18.485285,5.6803875 17.645476,4.1436942 15.895743,3.3930877 l -0.210026,0.5003666 z"
     id="path73"
     style="fill:#3b7f91;fill-opacity:1;stroke-width:0.0464296" />
  <path
     d="m 17.295442,3.3573209 c 1.15475,0.4646536 1.679661,1.4653932 1.854619,2.6805264 L 19.5,5.9664033 C 19.290001,4.6440611 18.695101,3.5360612 17.435366,3.0000014 Z"
     id="path75"
     style="fill:#3b8091;fill-opacity:1;stroke-width:0.0464296" />
</svg>
