<?xml version="1.0" encoding="UTF-8" standalone="no"?>
<svg
   width="22"
   height="22"
   version="1.1"
   id="svg2"
   sodipodi:docname="notification-disabled.svg"
   inkscape:version="1.3.2 (091e20ef0f, 2023-11-25)"
   xmlns:inkscape="http://www.inkscape.org/namespaces/inkscape"
   xmlns:sodipodi="http://sodipodi.sourceforge.net/DTD/sodipodi-0.dtd"
   xmlns="http://www.w3.org/2000/svg"
   xmlns:svg="http://www.w3.org/2000/svg">
  <defs
     id="defs2" />
  <sodipodi:namedview
     id="namedview2"
     pagecolor="#ffffff"
     bordercolor="#999999"
     borderopacity="1"
     inkscape:showpageshadow="2"
     inkscape:pageopacity="0"
     inkscape:pagecheckerboard="0"
     inkscape:deskcolor="#d1d1d1"
     showgrid="true"
     inkscape:zoom="12.245804"
     inkscape:cx="11.350827"
     inkscape:cy="-2.5314794"
     inkscape:window-width="1920"
     inkscape:window-height="994"
     inkscape:window-x="0"
     inkscape:window-y="0"
     inkscape:window-maximized="1"
     inkscape:current-layer="svg2">
    <inkscape:grid
       id="grid1"
       units="px"
       originx="3.6766506e-09"
       originy="-32"
       spacingx="1"
       spacingy="1"
       empcolor="#0099e5"
       empopacity="0.30196078"
       color="#0099e5"
       opacity="0.14902"
       empspacing="5"
       dotted="false"
       gridanglex="30"
       gridanglez="30"
       visible="true" />
  </sodipodi:namedview>
  <style
     type="text/css"
     id="current-color-scheme">.ColorScheme-Text { color:#ffffff; }
.ColorScheme-ButtonFocus { color:#3daee9; }
.ColorScheme-NegativeText { color: #da4453; }
</style>
  <g
     id="22-22-notifications-disabled-3"
     transform="matrix(3.7795277,0,0,3.7795277,-0.03857965,-1100.5285)">
    <rect
       ry="1.2988282e-06"
       y="291.18149"
       x="0.010207531"
       height="5.8208332"
       width="5.8208332"
       id="rect1383"
       style="opacity:0.003;fill:#ff1f1f;fill-opacity:1;stroke:none;stroke-width:0.10795;stroke-miterlimit:4;stroke-dasharray:none;stroke-opacity:1"
       rx="1.2988282e-06" />
    <path
       d="m 2.9192479,291.97524 c 0.1789482,0 0.2591778,0.13606 0.2591778,0.29682 0.3887841,0.0681 0.7713687,0.29684 0.8207327,0.72971 0.09257,0.90904 0.141943,1.56453 0.870098,2.20767 0.01233,0.25353 -0.07406,0.35248 -0.290037,0.46997 H 1.2592468 c -0.2221521,-0.11752 -0.30237898,-0.22262 -0.29621158,-0.46997 0.73436688,-0.6555 0.77756798,-1.28628 0.87009808,-2.20767 0.049371,-0.43288 0.4381526,-0.66167 0.8269314,-0.72971 0,-0.16076 0.07406,-0.29682 0.2591752,-0.29682 z m -1.6847052,3.34548 c 0.018521,0.0371 0.055544,0.0756 0.086405,0.0941 h 3.1904037 c 0.03086,-0.0185 0.07406,-0.0571 0.0864,-0.0941 -0.7035005,-0.64933 -0.7713714,-1.38523 -0.8639756,-2.28183 -0.1851157,-0.69879 -1.4502103,-0.69879 -1.6291427,0 -0.1604353,0.9338 -0.086405,1.56451 -0.8700954,2.28183 z"
       fill-rule="evenodd"
       id="path67-3-7"
       style="fill:#bf616a;fill-opacity:1;stroke-width:0.00756735"
       sodipodi:nodetypes="sccccccccsscccccccc" />
    <path
       d="m 3.2771153,295.74576 c 0.074057,0.21597 -0.1234334,0.46282 -0.3579283,0.46282 -0.2344949,0 -0.4319852,-0.24684 -0.3579257,-0.46282 z"
       fill-rule="evenodd"
       id="path69-6-5"
       style="fill:#bf616a;fill-opacity:1;stroke-width:0.00755946" />
  </g>
</svg>
