<?xml version="1.0" encoding="UTF-8" standalone="no"?>
<svg
   viewBox="0 0 22 22"
   version="1.1"
   id="svg1"
   sodipodi:docname="system-lock-screen.svg"
   width="22"
   height="22"
   inkscape:version="1.3.2 (091e20ef0f, 2023-11-25)"
   xmlns:inkscape="http://www.inkscape.org/namespaces/inkscape"
   xmlns:sodipodi="http://sodipodi.sourceforge.net/DTD/sodipodi-0.dtd"
   xmlns="http://www.w3.org/2000/svg"
   xmlns:svg="http://www.w3.org/2000/svg">
  <sodipodi:namedview
     id="namedview1"
     pagecolor="#ffffff"
     bordercolor="#999999"
     borderopacity="1"
     inkscape:showpageshadow="2"
     inkscape:pageopacity="0"
     inkscape:pagecheckerboard="0"
     inkscape:deskcolor="#d1d1d1"
     inkscape:zoom="4.3295455"
     inkscape:cx="10.855643"
     inkscape:cy="10.624672"
     inkscape:window-width="1920"
     inkscape:window-height="994"
     inkscape:window-x="0"
     inkscape:window-y="0"
     inkscape:window-maximized="1"
     inkscape:current-layer="svg1" />
  <defs
     id="defs3051">
    <style
       type="text/css"
       id="current-color-scheme">.ColorScheme-Text { color:#fcfcfc; }
</style>
  </defs>
  <g
     id="22-22-system-lock-screen"
     transform="translate(-54,-96)">
    <path
       id="path19"
       d="m 54,96 v 22 H 76 V 96 Z"
       style="fill:none" />
    <path
       style="color:#000000;overflow:visible;opacity:1;fill:#434c5e;fill-opacity:1;stroke-width:0.733334"
       id="path1145-8"
       overflow="visible"
       d="m 65,96 c -6.068997,0 -11,4.931 -11,11 0,6.069 4.931003,11 11,11 6.068997,0 11,-4.931 11,-11 0,-6.069 -4.931003,-11 -11,-11 z"
       inkscape:connector-curvature="0" />
    <path
       id="path1151-4"
       style="fill:#d6dbf1;fill-opacity:1;fill-rule:evenodd;stroke-width:0.733334;paint-order:fill markers stroke"
       d="m 65,101.13334 c -1.625063,0 -2.933337,1.30826 -2.933337,2.93332 v 2.2 c -0.812526,0 -1.466663,0.65414 -1.466663,1.46668 v 2.93332 c 0,0.81254 0.654137,1.46668 1.466663,1.46668 H 65 67.933337 c 0.812526,0 1.466663,-0.65414 1.466663,-1.46668 v -2.93332 c 0,-0.81254 -0.654137,-1.46668 -1.466663,-1.46668 v -2.2 c 0,-1.62506 -1.308274,-2.93332 -2.933337,-2.93332 z m 0,0.73332 c 1.2188,0 2.2,0.9812 2.2,2.2 v 2.2 h -4.4 v -2.2 c 0,-1.2188 0.9812,-2.2 2.2,-2.2 z"
       inkscape:connector-curvature="0" />
  </g>
</svg>
